# xmcd
#
# Track frame offsets: 
#        150
#        14640
#        27387
#        39199
#        50888
#        63109
#        75402
#        88464
#        102393
#        114450
#        128061
#        136261
#        142639
#        154170
#
# Disc length: 2203 seconds
#
# Revision: 0
# Processed by: cddbd v1.5.2PL0 Copyright (c) Steve Scherf et al.
# Submitted via: ExactAudioCopy v0.95b4
#
DISCID=b508990e
DTITLE=Roy Rogers - A Cowboy Has To Sing CD 01
DYEAR=2006
DGENRE=Country
TTITLE0=Tumbling Tumbleweeds
TTITLE1=Way Out There
TTITLE2=Ride, Ranger, Ride
TTITLE3=Hold That Critter Down
TTITLE4=One More Ride
TTITLE5=Headin' For Texas and Home
TTITLE6=Born to the Saddle
TTITLE7=Listen To The Rhythm of the Range
TTITLE8=I've Sold My Saddle for an Old Guitar
TTITLE9=That Pioneer Mother of Mine
TTITLE10=A Cowboy Has to Sing
TTITLE11=Pistol Packin' Mama
TTITLE12=Roll Along Prarie Moon
TTITLE13=Ridin' Down the Trail
EXTD=
EXTT0=
EXTT1=
EXTT2=
EXTT3=
EXTT4=
EXTT5=
EXTT6=
EXTT7=
EXTT8=
EXTT9=
EXTT10=
EXTT11=
EXTT12=
EXTT13=
PLAYORDER=
